<svg version="1.0" xmlns="http://www.w3.org/2000/svg"
 width="1600.000000pt" height="1505.000000pt" viewBox="0 0 1600.000000 1505.000000"
 preserveAspectRatio="xMidYMid meet">
<style>
  path {
    fill: #F9F6EE; /* Inverted black */
  }
</style>

<g transform="translate(0.000000,1505.000000) scale(0.100000,-0.100000)" stroke="none">
<path d="M9080 14885 c314 -124 490 -207 704 -335 838 -499 1414 -1341 1587
-2320 61 -352 66 -751 13 -1120 -92 -636 -392 -1277 -816 -1741 -199 -217
-376 -372 -593 -518 -454 -305 -939 -497 -1505 -596 -85 -15 -177 -32 -205
-39 l-50 -11 -3 -332 -2 -333 27 -5 c48 -10 184 -66 277 -113 247 -126 438
-362 512 -632 26 -93 26 -360 0 -483 -23 -109 -33 -95 159 -210 269 -160 386
-221 404 -210 9 5 72 77 141 159 610 731 1343 1171 2195 1319 218 38 643 48
875 20 971 -113 1869 -642 2429 -1430 290 -408 494 -891 571 -1350 28 -169 39
-297 46 -529 8 -242 -4 -400 -52 -690 -19 -114 -33 -210 -31 -212 5 -6 81 257
111 386 49 208 88 486 117 823 12 151 6 274 -32 611 -76 679 -300 1313 -667
1886 -309 482 -780 968 -1252 1291 -515 353 -1026 573 -1674 720 -93 21 -173
42 -178 47 -6 6 17 87 61 217 120 350 183 639 216 995 23 237 16 683 -14 915
-94 729 -336 1386 -724 1970 -273 410 -564 729 -941 1029 -461 369 -984 637
-1568 805 -235 67 -281 73 -138 16z"/>
<path d="M6845 14881 c-948 -245 -1742 -754 -2340 -1501 -518 -649 -835 -1411
-952 -2288 -21 -164 -25 -892 -5 -1042 48 -351 104 -605 207 -945 25 -81 45
-155 45 -165 0 -23 0 -23 -175 -55 -868 -162 -1599 -543 -2244 -1170 -379
-369 -670 -770 -906 -1250 -156 -317 -248 -565 -325 -880 -100 -406 -162 -913
-146 -1190 14 -241 67 -645 112 -855 30 -142 103 -412 114 -423 4 -5 -1 38
-11 95 -66 357 -72 436 -66 849 5 356 9 394 73 679 201 897 791 1693 1618
2179 323 190 698 330 1101 411 208 41 396 53 730 47 248 -4 296 -8 420 -31
610 -116 1091 -335 1565 -710 196 -156 484 -444 660 -663 50 -62 96 -113 101
-113 14 0 71 30 222 117 121 69 347 211 347 218 0 2 -8 40 -17 86 -25 120 -24
395 1 503 40 175 135 348 260 472 117 117 232 185 420 250 l106 37 -2 336 -3
336 -40 7 c-22 4 -98 17 -170 28 -558 89 -1064 282 -1505 573 -703 466 -1185
1154 -1390 1987 -168 683 -120 1403 136 2062 160 413 377 763 665 1074 373
403 823 691 1427 914 78 29 142 54 142 56 0 8 -29 2 -175 -35z"/>
<path d="M7790 10739 c-599 -38 -1156 -187 -1681 -450 -226 -113 -529 -300
-588 -363 l-24 -25 369 -370 369 -371 123 80 c374 241 790 385 1247 431 148
14 532 14 680 0 489 -49 924 -185 1330 -416 63 -36 119 -65 124 -65 10 0 472
468 604 612 48 52 87 100 87 106 0 19 -93 93 -240 191 -579 387 -1216 592
-1995 641 -176 11 -209 11 -405 -1z"/>
<path d="M3801 6933 c-32 -60 -52 -589 -32 -823 45 -515 162 -942 386 -1408
360 -744 928 -1365 1645 -1794 167 -100 464 -247 476 -235 6 5 128 439 209
741 65 242 67 249 49 267 -11 10 -77 50 -149 90 -397 218 -701 488 -963 855
-302 426 -526 972 -603 1474 -14 94 -22 207 -26 372 l-6 237 -31 10 c-65 21
-921 231 -941 231 -2 0 -8 -8 -14 -17z"/>
<path d="M12009 6899 c-85 -22 -291 -76 -459 -120 -168 -44 -321 -84 -340 -89
l-35 -9 0 -263 c0 -268 -7 -352 -47 -553 -88 -451 -332 -964 -639 -1345 -267
-330 -614 -641 -889 -795 -131 -74 -160 -94 -160 -111 0 -17 95 -360 198 -714
l68 -235 29 1 c17 1 93 31 171 67 560 260 1039 643 1429 1142 90 116 259 370
334 502 294 519 482 1132 532 1733 12 141 7 770 -6 802 -3 9 -12 19 -19 21 -7
3 -82 -13 -167 -34z"/>
<path d="M8690 5759 c-121 -111 -325 -225 -485 -271 -70 -20 -101 -23 -250
-22 -155 0 -178 3 -258 27 -150 46 -261 108 -397 222 -47 39 -90 74 -97 78
-19 12 -559 -301 -570 -330 -3 -8 21 -85 52 -171 178 -482 257 -866 272 -1317
23 -713 -182 -1401 -592 -1991 -343 -492 -828 -891 -1405 -1154 -495 -226
-950 -320 -1495 -307 -256 6 -415 24 -632 73 -296 66 -470 129 -773 280 -327
163 -468 260 -864 593 -18 15 -18 15 -8 -5 17 -32 335 -339 455 -439 635 -528
1363 -854 2157 -964 445 -61 665 -68 1005 -32 638 68 1103 198 1620 451 557
273 1024 626 1437 1088 60 67 114 120 119 117 5 -4 48 -52 96 -108 184 -216
462 -483 678 -652 438 -342 1068 -639 1655 -779 851 -204 1716 -161 2546 125
601 207 1121 528 1635 1009 64 60 136 133 160 162 50 60 48 59 -117 -77 -473
-390 -1014 -658 -1544 -765 -264 -53 -379 -64 -680 -64 -354 0 -586 30 -890
114 -462 127 -939 371 -1280 653 -122 101 -442 425 -537 544 -344 430 -564
928 -670 1517 -22 126 -25 177 -30 466 -4 264 -2 352 12 470 36 315 116 640
243 985 51 140 67 193 59 203 -24 31 -531 322 -558 322 -8 -1 -39 -24 -69 -51z"/>
</g>
</svg>
